<svg xmlns="http://www.w3.org/2000/svg" viewBox="0 0 32 32" fill="none">
  <defs>
    <linearGradient id="g" x1="0%" y1="0%" x2="0%" y2="100%">
      <stop offset="0%" style="stop-color:#a855f7"/>
      <stop offset="100%" style="stop-color:#7c3aed"/>
    </linearGradient>
  </defs>

  <!-- Background -->
  <rect width="32" height="32" rx="6" fill="#1f2937"/>

  <!-- Ghost body (simplified) -->
  <path d="M16 6
           C10 6 6 11 6 17
           C6 24 6 26 6 26
           C6 27 7 27 8 25.5
           C9 24 10 24 11 25.5
           C12 27 13 27 14 25.5
           C15 24 17 24 18 25.5
           C19 27 20 27 21 25.5
           C22 24 23 24 24 25.5
           C25 27 26 27 26 26
           C26 26 26 24 26 17
           C26 11 22 6 16 6 Z"
        fill="url(#g)"/>

  <!-- Eyes -->
  <ellipse cx="12" cy="15" rx="2" ry="2.5" fill="#1f2937"/>
  <ellipse cx="20" cy="15" rx="2" ry="2.5" fill="#1f2937"/>

  <!-- Lightning bolt -->
  <path d="M19 4 L16 10 L19 10 L14 18 L17 11 L14 11 Z"
        fill="#fbbf24"/>
</svg>
